M48
;DRILL file {KiCad no-vcs-found-7420~56~ubuntu16.04.1} date Mon Jan  2 14:23:45 2017
;FORMAT={-:-/ absolute / inch / decimal}
FMAT,2
INCH,TZ
T1C0.008
T2C0.012
T3C0.016
T4C0.025
T5C0.035
T6C0.039
T7C0.040
T8C0.040
T9C0.043
T10C0.047
T11C0.063
T12C0.091
T13C0.126
%
G90
G05
M72
T1
X7.9467Y-5.801
X7.9467Y-5.8526
X7.9982Y-5.801
X7.9982Y-5.8526
T2
X4.0039Y-6.7047
X4.0197Y-8.2126
X4.0236Y-7.563
X4.0748Y-6.6496
X4.0906Y-6.2638
X4.1102Y-7.563
X4.1142Y-7.7953
X4.1732Y-6.4291
X4.1929Y-6.5
X4.2244Y-8.2165
X4.2874Y-6.2638
X4.3051Y-6.1299
X4.3898Y-6.3228
X4.4045Y-5.9793
X4.4045Y-6.0679
X4.4114Y-7.3445
X4.4606Y-6.1811
X4.4921Y-6.1811
X4.4931Y-5.9793
X4.4931Y-6.0679
X4.5177Y-5.872
X4.5354Y-8.2165
X4.5666Y-7.0705
X4.5669Y-7.5512
X4.5669Y-7.3976
X4.5866Y-6.8898
X4.5906Y-6.4016
X4.5906Y-8.2126
X4.5984Y-6.6811
X4.6063Y-7.2598
X4.622Y-8.315
X4.6339Y-7.4291
X4.6457Y-6.3307
X4.6614Y-6.4016
X4.6732Y-6.5945
X4.6801Y-6.9724
X4.6811Y-6.0984
X4.685Y-5.9213
X4.685Y-5.9646
X4.685Y-6.0039
X4.685Y-6.0472
X4.685Y-6.9331
X4.6929Y-8.189
X4.7008Y-7.3091
X4.7008Y-7.378
X4.7047Y-6.4961
X4.7126Y-5.9213
X4.7126Y-5.9646
X4.7126Y-6.0039
X4.7126Y-6.0472
X4.7244Y-6.3307
X4.7638Y-7.2362
X4.8583Y-6.2795
X4.9213Y-7.1496
X4.9409Y-6.8661
X4.9449Y-7.2539
X4.9567Y-6.815
X4.9803Y-6.4016
X5.0039Y-7.4724
X5.0079Y-4.5551
X5.0098Y-7.2677
X5.0157Y-4.3937
X5.0157Y-7.8937
X5.0157Y-7.9764
X5.0197Y-7.6142
X5.0236Y-6.3071
X5.0669Y-7.7756
X5.0709Y-6.1339
X5.0984Y-5.5591
X5.1161Y-7.1299
X5.1181Y-4.6496
X5.1181Y-5.1496
X5.126Y-7.4626
X5.1339Y-5.2165
X5.1378Y-6.5984
X5.1378Y-7.063
X5.1378Y-7.6772
X5.1378Y-7.8583
X5.1575Y-6.3228
X5.1654Y-7.3976
X5.1693Y-5.2126
X5.1722Y-5.9793
X5.1722Y-6.0679
X5.185Y-6.8268
X5.1969Y-5.5157
X5.2008Y-5.311
X5.2008Y-6.878
X5.2047Y-4.5
X5.2047Y-6.1732
X5.2165Y-4.4488
X5.2205Y-4.2913
X5.2244Y-5.5984
X5.2244Y-7.5079
X5.2362Y-5.2165
X5.2441Y-6.5197
X5.2461Y-6.1732
X5.252Y-5.5157
X5.2559Y-4.5669
X5.2559Y-6.9134
X5.2559Y-7.9331
X5.2608Y-5.9793
X5.2608Y-6.0679
X5.2717Y-5.6181
X5.2717Y-5.6496
X5.2756Y-4.4331
X5.2953Y-6.3228
X5.3228Y-4.4882
X5.3268Y-5.5197
X5.3296Y-5.3081
X5.3465Y-7.3701
X5.3465Y-7.4173
X5.3504Y-5.8976
X5.3622Y-6.124
X5.374Y-6.3307
X5.3819Y-7.4843
X5.3878Y-7.1319
X5.4016Y-8.0039
X5.4134Y-6.1693
X5.4134Y-7.0886
X5.4213Y-6.9173
X5.437Y-5.4724
X5.4528Y-5.311
X5.4528Y-5.5118
X5.4528Y-6.0945
X5.4528Y-6.3228
X5.4606Y-7.3425
X5.4626Y-5.2146
X5.4626Y-7.5
X5.4882Y-5.4331
X5.4961Y-5.7205
X5.5Y-6.2008
X5.5276Y-5.8494
X5.5335Y-5.185
X5.563Y-5.4331
X5.5669Y-7.1102
X5.5927Y-6.2853
X5.6102Y-5.5118
X5.6201Y-5.2677
X5.6339Y-7.4803
X5.6339Y-7.6378
X5.6378Y-4.2323
X5.6417Y-6.2835
X5.6516Y-5.5531
X5.6535Y-4.3268
X5.6811Y-6.2992
X5.6909Y-5.3366
X5.6909Y-5.372
X5.6969Y-5.4606
X5.6988Y-5.248
X5.7126Y-8.1772
X5.7146Y-5.7008
X5.7165Y-8.2323
X5.7205Y-6.2067
X5.7264Y-5.3366
X5.7264Y-5.372
X5.7323Y-4.248
X5.7402Y-6.3524
X5.748Y-4.3425
X5.748Y-6.2756
X5.752Y-5.4528
X5.7539Y-5.2717
X5.7579Y-5.1811
X5.7795Y-6.2047
X5.7913Y-5.6535
X5.8031Y-7.9213
X5.8031Y-8.0512
X5.8031Y-8.1417
X5.8071Y-7.122
X5.8189Y-6.2677
X5.8307Y-6.2008
X5.8346Y-7.2244
X5.8366Y-6.0295
X5.8386Y-7.0394
X5.8465Y-5.2598
X5.8514Y-4.562
X5.8701Y-6.2047
X5.874Y-6.0748
X5.8858Y-4.622
X5.8898Y-5.5512
X5.9055Y-5.8563
X5.9055Y-6.3307
X5.9055Y-6.7913
X5.9252Y-4.5
X5.9331Y-7.4094
X5.937Y-5.2992
X5.9646Y-6.1457
X5.9685Y-5.4331
X5.9724Y-7.7795
X5.9843Y-7.7047
X5.9882Y-7.8819
X5.9921Y-7.5315
X6.0039Y-4.622
X6.0039Y-7.0354
X6.0079Y-7.9252
X6.0079Y-8.0512
X6.0118Y-6.2244
X6.0197Y-7.4075
X6.0315Y-7.8386
X6.0374Y-5.1929
X6.0394Y-5.3209
X6.0433Y-7.1024
X6.0551Y-4.5
X6.0551Y-7.4685
X6.063Y-7.7835
X6.0669Y-5.8307
X6.0734Y-5.8726
X6.0787Y-5.7559
X6.0787Y-6.4055
X6.0827Y-4.6201
X6.0945Y-8.1378
X6.0945Y-8.1772
X6.0945Y-8.2559
X6.1102Y-4.5
X6.1102Y-7.811
X6.1142Y-5.2579
X6.1161Y-7.8445
X6.1181Y-8.2047
X6.126Y-5.1988
X6.1378Y-6.2205
X6.1584Y-6.1436
X6.1732Y-7.1024
X6.1949Y-7.7343
X6.2008Y-7.4252
X6.2362Y-4.6614
X6.2402Y-5.6102
X6.2441Y-5.4528
X6.2717Y-6.3484
X6.2795Y-7.2323
X6.2795Y-7.563
X6.2795Y-8.1929
X6.2835Y-5.0276
X6.2913Y-7.5118
X6.3012Y-6.374
X6.3031Y-4.5472
X6.311Y-6.8976
X6.315Y-5.748
X6.3268Y-7.2323
X6.3465Y-6.9272
X6.3543Y-5.0197
X6.3583Y-4.5
X6.3583Y-8.1102
X6.3622Y-5.1575
X6.3622Y-6.0984
X6.3642Y-7.565
X6.376Y-7.7539
X6.378Y-7.2323
X6.3957Y-6.4823
X6.3976Y-6.5177
X6.4016Y-6.374
X6.4055Y-5.6693
X6.4134Y-4.5472
X6.4154Y-7.4232
X6.4364Y-6.901
X6.4429Y-6.3169
X6.4567Y-8.1024
X6.4606Y-6.7972
X6.4705Y-6.502
X6.4764Y-8.2953
X6.4882Y-7.4409
X6.4921Y-6.813
X6.4941Y-6.5709
X6.5039Y-6.2953
X6.5157Y-4.374
X6.5157Y-6.6289
X6.5157Y-8.5039
X6.5177Y-4.2067
X6.5177Y-6.6929
X6.5197Y-6.9154
X6.5276Y-6.378
X6.5306Y-8.0747
X6.5354Y-7.875
X6.5453Y-6.7657
X6.5512Y-6.3346
X6.5512Y-6.4311
X6.5512Y-8.2953
X6.5551Y-6.8307
X6.5551Y-6.9882
X6.5591Y-4.9331
X6.5591Y-8.0669
X6.563Y-5.7283
X6.563Y-7.7165
X6.5709Y-5.1496
X6.5866Y-5.6732
X6.5869Y-8.0589
X6.5906Y-8.4173
X6.6024Y-5.8504
X6.6024Y-7.5079
X6.6161Y-5.3524
X6.626Y-8.5039
X6.6299Y-5.7283
X6.6299Y-8.1102
X6.6339Y-4.189
X6.6339Y-4.3976
X6.6339Y-4.7165
X6.6339Y-5.6319
X6.6339Y-5.8976
X6.6339Y-7.9528
X6.6437Y-7.4469
X6.6496Y-7.6181
X6.6535Y-4.8307
X6.6535Y-7.248
X6.6574Y-6.3731
X6.6579Y-6.3396
X6.6614Y-4.5965
X6.6654Y-5.8465
X6.6693Y-6.
X6.6713Y-6.8327
X6.685Y-6.5118
X6.685Y-6.563
X6.685Y-8.0433
X6.689Y-4.4547
X6.689Y-6.3209
X6.6929Y-5.1496
X6.7008Y-5.8346
X6.7047Y-6.
X6.7205Y-6.1063
X6.7323Y-6.2559
X6.7323Y-7.4331
X6.7362Y-5.3937
X6.7362Y-5.6929
X6.7362Y-8.2677
X6.7382Y-4.6555
X6.7382Y-4.8858
X6.7402Y-5.2126
X6.7402Y-6.7283
X6.7441Y-6.3701
X6.752Y-6.4134
X6.7598Y-8.2283
X6.7795Y-6.8465
X6.7795Y-7.4331
X6.7953Y-6.7008
X6.7992Y-7.1496
X6.7992Y-7.3622
X6.8004Y-5.7874
X6.8068Y-5.6827
X6.8071Y-5.2677
X6.811Y-4.9803
X6.811Y-7.4331
X6.811Y-8.2441
X6.815Y-4.8504
X6.815Y-5.1969
X6.815Y-5.437
X6.8268Y-7.5787
X6.8307Y-5.5669
X6.8307Y-6.4134
X6.8465Y-5.7677
X6.8543Y-5.8701
X6.8584Y-7.8642
X6.8622Y-4.815
X6.8622Y-7.9134
X6.8661Y-7.9843
X6.8661Y-8.0394
X6.8681Y-7.5079
X6.8681Y-5.8169
X6.8701Y-8.5
X6.8839Y-6.7421
X6.8858Y-4.7913
X6.8937Y-7.4331
X6.8996Y-6.6417
X6.9091Y-7.8281
X6.9094Y-6.1417
X6.9094Y-6.437
X6.9134Y-6.6024
X6.9213Y-5.937
X6.9213Y-8.1732
X6.9252Y-4.7323
X6.9331Y-7.4331
X6.9331Y-6.1063
X6.9449Y-8.0787
X6.9646Y-8.1772
X6.9646Y-7.5118
X6.9646Y-7.563
X6.9656Y-7.7323
X6.9665Y-6.1065
X6.9675Y-7.4331
X6.9682Y-7.8281
X6.9724Y-5.7283
X6.9724Y-6.8465
X6.9744Y-7.6398
X6.9843Y-7.9921
X6.9882Y-7.9291
X6.9921Y-8.0748
X6.9961Y-8.1772
X7.0059Y-6.8463
X7.0079Y-4.5571
X7.0079Y-4.8425
X7.0197Y-7.4331
X7.0276Y-5.6004
X7.0354Y-7.3425
X7.0472Y-7.0472
X7.0512Y-7.4331
X7.0512Y-8.5039
X7.055Y-7.0866
X7.063Y-7.5591
X7.0669Y-6.1417
X7.0669Y-6.437
X7.0709Y-8.0709
X7.0748Y-4.7598
X7.0827Y-7.2392
X7.0827Y-7.4331
X7.0827Y-7.5827
X7.0984Y-6.8346
X7.1063Y-4.8268
X7.1102Y-6.7874
X7.1102Y-7.5118
X7.1102Y-8.0039
X7.1102Y-8.0433
X7.1142Y-4.9764
X7.1142Y-7.8504
X7.1142Y-7.9094
X7.1181Y-5.563
X7.1181Y-7.7402
X7.1378Y-7.5866
X7.1417Y-5.1378
X7.1417Y-8.2087
X7.1417Y-8.2835
X7.1457Y-4.5472
X7.1457Y-4.7441
X7.1496Y-6.1102
X7.1535Y-7.5118
X7.1535Y-8.3858
X7.1542Y-6.8494
X7.1614Y-7.7205
X7.1654Y-6.6969
X7.1654Y-7.2598
X7.1693Y-5.3031
X7.1693Y-5.4882
X7.1703Y-6.9528
X7.1732Y-7.7953
X7.1831Y-6.1102
X7.185Y-7.3504
X7.189Y-7.685
X7.1929Y-4.9252
X7.1988Y-5.6004
X7.2008Y-6.7992
X7.2047Y-7.8898
X7.206Y-7.9334
X7.2087Y-4.7835
X7.2087Y-7.6457
X7.2205Y-6.3543
X7.2205Y-6.5984
X7.2205Y-7.0276
X7.2244Y-5.0945
X7.2244Y-6.2047
X7.2244Y-6.3031
X7.2283Y-6.5
X7.2283Y-6.5512
X7.2323Y-6.8455
X7.2402Y-5.7559
X7.2402Y-5.8465
X7.2402Y-6.9764
X7.248Y-6.1299
X7.25Y-7.5079
X7.2677Y-5.2992
X7.2677Y-5.4646
X7.2696Y-5.7777
X7.2795Y-7.3386
X7.2835Y-7.1299
X7.2913Y-5.8031
X7.2933Y-6.9508
X7.3051Y-6.8465
X7.311Y-6.6969
X7.3111Y-7.9331
X7.3111Y-8.0118
X7.3189Y-6.3583
X7.3228Y-5.7205
X7.3307Y-6.5945
X7.3548Y-5.9998
X7.3858Y-6.5394
X7.3898Y-5.9606
X7.3925Y-6.7723
X7.397Y-6.1613
X7.3975Y-6.3563
X7.3976Y-6.1277
X7.3976Y-6.3228
X7.3976Y-6.935
X7.4016Y-6.0187
X7.4046Y-6.7982
X7.4055Y-7.2677
X7.4075Y-7.3051
X7.4173Y-7.563
X7.439Y-6.872
X7.4626Y-6.0571
X7.4764Y-6.9055
X7.4803Y-7.9803
X7.497Y-6.5243
X7.5079Y-6.2323
X7.5276Y-7.3386
X7.5354Y-6.1693
X7.5394Y-4.2402
X7.5433Y-6.8071
X7.5433Y-6.8976
X7.5512Y-6.9528
X7.5551Y-6.2598
X7.5669Y-6.7323
X7.5787Y-6.189
X7.5965Y-7.2539
X7.6004Y-6.8533
X7.6063Y-5.8937
X7.6181Y-4.6713
X7.6201Y-7.2106
X7.6299Y-5.8484
X7.6339Y-5.9252
X7.6437Y-4.9646
X7.6575Y-6.8071
X7.6614Y-6.6004
X7.6614Y-6.6378
X7.6654Y-6.7539
X7.6772Y-7.4724
X7.6791Y-7.2106
X7.6811Y-4.8012
X7.6831Y-6.435
X7.685Y-6.5689
X7.6909Y-6.4783
X7.7047Y-7.7953
X7.7205Y-6.2874
X7.7283Y-6.6752
X7.7283Y-6.7264
X7.7283Y-7.5551
X7.7461Y-7.1929
X7.7559Y-7.2382
X7.7559Y-7.7402
X7.7559Y-7.8504
X7.7579Y-7.1555
X7.7618Y-6.6319
X7.7697Y-4.9134
X7.7854Y-4.7913
X7.7854Y-5.0846
X7.8031Y-5.9094
X7.8051Y-5.6732
X7.8071Y-5.9843
X7.8071Y-7.8169
X7.8169Y-6.6811
X7.8189Y-7.1024
X7.8307Y-6.8189
X7.8327Y-4.4508
X7.8346Y-5.5945
X7.8406Y-5.2224
X7.8524Y-4.9508
X7.8543Y-5.4035
X7.913Y-6.0734
X7.9134Y-5.5394
X7.9134Y-6.9882
X7.9134Y-7.0709
X7.9331Y-4.9213
X7.937Y-8.0906
X7.939Y-6.3524
X7.9409Y-6.9449
X7.9429Y-5.0886
X7.9429Y-5.2835
X7.9429Y-6.4961
X7.9478Y-6.4311
X7.9488Y-7.0315
X7.9488Y-6.8819
X7.9508Y-6.2717
X7.9626Y-5.3858
X7.9646Y-4.7677
X7.9656Y-5.9488
X7.9685Y-7.874
X7.9783Y-6.878
X8.0118Y-6.5748
X8.0236Y-7.5354
X8.0295Y-5.2106
X8.0295Y-5.3406
X8.0315Y-4.7854
X8.0335Y-5.4921
X8.0379Y-4.466
X8.0492Y-6.002
X8.0512Y-5.5709
X8.0512Y-7.7913
X8.063Y-5.063
X8.0669Y-4.8228
X8.0748Y-7.6969
X8.0787Y-5.752
X8.0846Y-6.1319
X8.0886Y-5.6654
X8.0944Y-5.7834
X8.0991Y-5.8458
X8.1161Y-5.811
X8.124Y-6.8839
X8.126Y-7.6496
X8.1299Y-5.5512
X8.1319Y-6.7953
X8.1378Y-8.3465
X8.1417Y-7.7953
X8.1437Y-6.0394
X8.1575Y-6.7126
X8.1654Y-6.126
X8.1811Y-7.7008
X8.189Y-7.8504
X8.1988Y-5.7303
X8.2047Y-6.7913
X8.2283Y-5.8858
X8.2342Y-7.7952
X8.2382Y-5.8465
X8.2441Y-5.7756
X8.2559Y-7.0984
X8.2677Y-5.1496
X8.2677Y-6.3425
X8.2795Y-5.0354
X8.2874Y-4.315
X8.2913Y-5.8878
X8.2972Y-5.8327
X8.3071Y-5.063
X8.3268Y-4.7835
X8.3661Y-7.061
X8.3701Y-6.4941
X8.372Y-5.685
X8.3732Y-6.2905
X8.374Y-5.6496
X8.374Y-5.7697
X8.3742Y-5.7174
X8.3819Y-5.9094
X8.4055Y-6.8701
X8.4075Y-6.7087
X8.4764Y-6.1339
X8.4803Y-6.1811
X8.4843Y-5.5866
X8.4921Y-5.4291
X8.5591Y-5.7697
X8.563Y-5.2362
X8.563Y-5.5866
X8.563Y-6.2854
X8.5728Y-6.248
X8.5846Y-7.1929
X8.6063Y-6.8445
X8.6732Y-5.8258
X8.689Y-5.8996
X8.6929Y-4.9016
X8.6935Y-6.5033
X8.6969Y-6.6831
X8.7028Y-4.689
X8.7087Y-5.7913
X8.7126Y-6.7992
X8.7244Y-6.0276
X8.7402Y-6.0591
X8.7559Y-5.6693
X8.7559Y-6.4055
X8.7559Y-6.5404
X8.7569Y-5.6181
X8.7569Y-6.2598
X8.7638Y-5.5591
X8.7835Y-5.4409
X8.8189Y-4.8996
X8.8543Y-4.9409
X8.8543Y-6.6496
X8.8583Y-4.7854
X8.8622Y-5.7579
X8.8622Y-5.8898
X8.878Y-5.5866
X8.8799Y-6.6831
X8.8839Y-5.2028
X8.8839Y-5.3091
X8.9016Y-5.4252
X8.9055Y-6.876
X8.934Y-4.9794
X8.935Y-4.689
X8.937Y-4.8228
X8.9665Y-4.8858
X8.9902Y-5.2028
X8.9902Y-5.3091
X8.9961Y-5.8465
X9.Y-6.5984
X9.0108Y-6.8228
X9.0138Y-4.685
X9.0315Y-6.0394
X9.0354Y-6.5984
X9.0395Y-7.0826
X9.0512Y-5.0659
X9.063Y-5.7283
X9.0647Y-6.0515
X9.0709Y-5.0079
X9.0709Y-6.8228
X9.1102Y-5.2717
X9.1102Y-5.315
X9.1102Y-6.6811
X9.1142Y-5.9213
X9.1181Y-5.2362
X9.1693Y-6.0472
X9.1732Y-6.437
X9.1988Y-5.1102
X9.2126Y-4.7303
X9.2165Y-5.5945
X9.2205Y-5.2756
X9.2205Y-6.8307
X9.2244Y-5.9213
X9.2756Y-5.0709
X9.2785Y-5.
X9.2835Y-6.8307
X9.3071Y-6.0512
X9.3307Y-6.8307
X9.3701Y-6.0551
X9.3701Y-6.8307
X9.3878Y-4.7185
T3
X4.0276Y-6.2047
X4.0669Y-4.7992
X4.0748Y-5.685
X4.1102Y-4.9803
X4.1102Y-5.0394
X4.1969Y-4.9213
X4.2323Y-5.1732
X4.2323Y-5.0669
X4.2717Y-4.9213
X4.311Y-7.7953
X4.3189Y-5.1732
X4.3228Y-5.063
X4.3307Y-4.9882
X4.8425Y-5.6969
X5.6535Y-5.185
X5.8071Y-5.4528
X5.8976Y-5.1929
X8.378Y-8.2953
T4
X4.9803Y-5.0394
X5.0591Y-4.8228
X5.5118Y-6.437
X5.5315Y-8.563
X6.4961Y-6.0433
X6.7126Y-5.8858
X7.4016Y-5.4331
X7.6378Y-7.874
X7.6969Y-6.122
X7.7362Y-7.9724
T5
X7.7384Y-4.661
X7.7884Y-4.561
X7.8384Y-4.661
X7.8884Y-4.561
X7.9384Y-4.661
X7.9884Y-4.561
X8.0384Y-4.661
X8.0884Y-4.561
T6
X4.0748Y-5.9146
X4.0748Y-6.0146
X4.8425Y-5.9343
X4.8425Y-6.0343
X5.5906Y-5.9343
X5.5906Y-6.0343
T7
X4.2898Y-7.4213
X4.3898Y-7.4213
X4.4898Y-7.4213
X4.8228Y-8.2465
X4.8228Y-8.3465
X5.7024Y-8.4055
X5.7024Y-8.5055
X5.8024Y-8.4055
X5.8024Y-8.5055
X5.9024Y-8.4055
X5.9024Y-8.5055
X6.0024Y-8.4055
X6.0024Y-8.5055
X6.1024Y-8.4055
X6.1024Y-8.5055
X7.5591Y-7.4
X7.5591Y-7.5
X7.5591Y-7.6
X8.4827Y-8.4252
X8.5827Y-8.4252
X8.6811Y-6.1992
X8.6811Y-6.2992
X8.6811Y-6.3992
X8.6827Y-8.4252
X9.2126Y-4.4882
X9.3126Y-4.4882
X9.3504Y-5.7071
X9.3504Y-5.8071
T8
X7.6644Y-4.178
X7.7644Y-4.1181
X8.0624Y-4.178
X8.1624Y-4.1181
T9
X8.8189Y-4.3307
T10
X6.122Y-6.0039
X6.3189Y-6.0039
T11
X7.6033Y-4.4311
X8.2234Y-4.4311
T12
X6.887Y-4.2913
X7.4043Y-4.2913
X8.6594Y-4.1713
X8.6594Y-4.4902
X8.9783Y-4.1713
X8.9783Y-4.4902
T13
X4.1339Y-4.1339
X4.1339Y-8.4646
X7.4803Y-5.7087
X9.252Y-4.1339
X9.252Y-8.4646
T0
M30
