G04 #@! TF.GenerationSoftware,KiCad,Pcbnew,no-vcs-found-7420~56~ubuntu16.04.1*
G04 #@! TF.CreationDate,2017-01-02T14:23:42+01:00*
G04 #@! TF.ProjectId,Mainboard,4D61696E626F6172642E6B696361645F,1.0*
G04 #@! TF.FileFunction,Soldermask,Bot*
G04 #@! TF.FilePolarity,Negative*
%FSLAX46Y46*%
G04 Gerber Fmt 4.6, Leading zero omitted, Abs format (unit mm)*
G04 Created by KiCad (PCBNEW no-vcs-found-7420~56~ubuntu16.04.1) date Mon Jan  2 14:23:42 2017*
%MOMM*%
%LPD*%
G01*
G04 APERTURE LIST*
%ADD10C,0.100000*%
%ADD11C,0.300000*%
%ADD12R,0.900000X1.200000*%
%ADD13R,1.727200X1.727200*%
%ADD14O,1.727200X1.727200*%
%ADD15R,1.600000X2.000000*%
%ADD16R,2.500000X3.200000*%
%ADD17R,1.300000X2.400000*%
%ADD18C,2.500000*%
%ADD19C,3.000000*%
%ADD20R,3.750000X4.000000*%
%ADD21R,0.750000X1.200000*%
%ADD22O,2.032000X1.727200*%
%ADD23R,2.032000X1.727200*%
%ADD24R,1.200000X0.400000*%
%ADD25C,2.000000*%
%ADD26C,3.250000*%
%ADD27R,1.200000X0.900000*%
%ADD28R,1.200000X0.750000*%
%ADD29R,2.000000X1.600000*%
%ADD30R,0.700000X0.600000*%
%ADD31R,0.800100X0.800100*%
%ADD32R,2.000000X6.000000*%
%ADD33R,3.400000X1.300000*%
%ADD34C,6.400000*%
%ADD35R,2.032000X2.032000*%
%ADD36O,2.032000X2.032000*%
%ADD37O,3.014980X1.506220*%
%ADD38R,0.500000X0.320000*%
%ADD39R,1.200000X4.000000*%
%ADD40R,0.650000X1.060000*%
%ADD41R,1.060000X0.650000*%
%ADD42R,0.450000X1.450000*%
%ADD43R,1.560000X0.650000*%
%ADD44R,0.910000X1.220000*%
%ADD45R,1.220000X0.910000*%
%ADD46O,1.727200X2.032000*%
%ADD47R,1.727200X2.032000*%
%ADD48R,2.301240X3.500120*%
%ADD49C,3.500000*%
%ADD50R,1.550000X0.600000*%
%ADD51C,1.100000*%
%ADD52C,0.403333*%
%ADD53C,4.000000*%
%ADD54C,0.800000*%
%ADD55R,1.500000X1.100000*%
%ADD56R,3.500120X2.301240*%
%ADD57R,0.600000X0.700000*%
%ADD58R,1.100000X1.500000*%
%ADD59C,1.850000*%
%ADD60R,2.000000X2.500000*%
%ADD61R,1.000000X0.900000*%
%ADD62R,0.400000X1.200000*%
%ADD63C,1.143000*%
G04 APERTURE END LIST*
D10*
D11*
X291052142Y-181892857D02*
X291266428Y-181964285D01*
X291337857Y-182035714D01*
X291409285Y-182178571D01*
X291409285Y-182392857D01*
X291337857Y-182535714D01*
X291266428Y-182607142D01*
X291123571Y-182678571D01*
X290552142Y-182678571D01*
X290552142Y-181178571D01*
X291052142Y-181178571D01*
X291195000Y-181250000D01*
X291266428Y-181321428D01*
X291337857Y-181464285D01*
X291337857Y-181607142D01*
X291266428Y-181750000D01*
X291195000Y-181821428D01*
X291052142Y-181892857D01*
X290552142Y-181892857D01*
X292266428Y-182678571D02*
X292123571Y-182607142D01*
X292052142Y-182535714D01*
X291980714Y-182392857D01*
X291980714Y-181964285D01*
X292052142Y-181821428D01*
X292123571Y-181750000D01*
X292266428Y-181678571D01*
X292480714Y-181678571D01*
X292623571Y-181750000D01*
X292695000Y-181821428D01*
X292766428Y-181964285D01*
X292766428Y-182392857D01*
X292695000Y-182535714D01*
X292623571Y-182607142D01*
X292480714Y-182678571D01*
X292266428Y-182678571D01*
X293195000Y-181678571D02*
X293766428Y-181678571D01*
X293409285Y-181178571D02*
X293409285Y-182464285D01*
X293480714Y-182607142D01*
X293623571Y-182678571D01*
X293766428Y-182678571D01*
X294052142Y-181678571D02*
X294623571Y-181678571D01*
X294266428Y-181178571D02*
X294266428Y-182464285D01*
X294337857Y-182607142D01*
X294480714Y-182678571D01*
X294623571Y-182678571D01*
X295337857Y-182678571D02*
X295195000Y-182607142D01*
X295123571Y-182535714D01*
X295052142Y-182392857D01*
X295052142Y-181964285D01*
X295123571Y-181821428D01*
X295195000Y-181750000D01*
X295337857Y-181678571D01*
X295552142Y-181678571D01*
X295695000Y-181750000D01*
X295766428Y-181821428D01*
X295837857Y-181964285D01*
X295837857Y-182392857D01*
X295766428Y-182535714D01*
X295695000Y-182607142D01*
X295552142Y-182678571D01*
X295337857Y-182678571D01*
X296480714Y-182678571D02*
X296480714Y-181678571D01*
X296480714Y-181821428D02*
X296552142Y-181750000D01*
X296695000Y-181678571D01*
X296909285Y-181678571D01*
X297052142Y-181750000D01*
X297123571Y-181892857D01*
X297123571Y-182678571D01*
X297123571Y-181892857D02*
X297195000Y-181750000D01*
X297337857Y-181678571D01*
X297552142Y-181678571D01*
X297695000Y-181750000D01*
X297766428Y-181892857D01*
X297766428Y-182678571D01*
X299552142Y-182607142D02*
X299766428Y-182678571D01*
X300123571Y-182678571D01*
X300266428Y-182607142D01*
X300337857Y-182535714D01*
X300409285Y-182392857D01*
X300409285Y-182250000D01*
X300337857Y-182107142D01*
X300266428Y-182035714D01*
X300123571Y-181964285D01*
X299837857Y-181892857D01*
X299695000Y-181821428D01*
X299623571Y-181750000D01*
X299552142Y-181607142D01*
X299552142Y-181464285D01*
X299623571Y-181321428D01*
X299695000Y-181250000D01*
X299837857Y-181178571D01*
X300195000Y-181178571D01*
X300409285Y-181250000D01*
X301266428Y-182678571D02*
X301123571Y-182607142D01*
X301052142Y-182535714D01*
X300980714Y-182392857D01*
X300980714Y-181964285D01*
X301052142Y-181821428D01*
X301123571Y-181750000D01*
X301266428Y-181678571D01*
X301480714Y-181678571D01*
X301623571Y-181750000D01*
X301695000Y-181821428D01*
X301766428Y-181964285D01*
X301766428Y-182392857D01*
X301695000Y-182535714D01*
X301623571Y-182607142D01*
X301480714Y-182678571D01*
X301266428Y-182678571D01*
X302623571Y-182678571D02*
X302480714Y-182607142D01*
X302409285Y-182464285D01*
X302409285Y-181178571D01*
X303837857Y-182678571D02*
X303837857Y-181178571D01*
X303837857Y-182607142D02*
X303695000Y-182678571D01*
X303409285Y-182678571D01*
X303266428Y-182607142D01*
X303195000Y-182535714D01*
X303123571Y-182392857D01*
X303123571Y-181964285D01*
X303195000Y-181821428D01*
X303266428Y-181750000D01*
X303409285Y-181678571D01*
X303695000Y-181678571D01*
X303837857Y-181750000D01*
X305123571Y-182607142D02*
X304980714Y-182678571D01*
X304695000Y-182678571D01*
X304552142Y-182607142D01*
X304480714Y-182464285D01*
X304480714Y-181892857D01*
X304552142Y-181750000D01*
X304695000Y-181678571D01*
X304980714Y-181678571D01*
X305123571Y-181750000D01*
X305195000Y-181892857D01*
X305195000Y-182035714D01*
X304480714Y-182178571D01*
X305837857Y-182678571D02*
X305837857Y-181678571D01*
X305837857Y-181964285D02*
X305909285Y-181821428D01*
X305980714Y-181750000D01*
X306123571Y-181678571D01*
X306266428Y-181678571D01*
X307909285Y-182678571D02*
X307909285Y-181178571D01*
X308409285Y-182250000D01*
X308909285Y-181178571D01*
X308909285Y-182678571D01*
X310266428Y-182678571D02*
X310266428Y-181892857D01*
X310195000Y-181750000D01*
X310052142Y-181678571D01*
X309766428Y-181678571D01*
X309623571Y-181750000D01*
X310266428Y-182607142D02*
X310123571Y-182678571D01*
X309766428Y-182678571D01*
X309623571Y-182607142D01*
X309552142Y-182464285D01*
X309552142Y-182321428D01*
X309623571Y-182178571D01*
X309766428Y-182107142D01*
X310123571Y-182107142D01*
X310266428Y-182035714D01*
X310909285Y-182607142D02*
X311052142Y-182678571D01*
X311337857Y-182678571D01*
X311480714Y-182607142D01*
X311552142Y-182464285D01*
X311552142Y-182392857D01*
X311480714Y-182250000D01*
X311337857Y-182178571D01*
X311123571Y-182178571D01*
X310980714Y-182107142D01*
X310909285Y-181964285D01*
X310909285Y-181892857D01*
X310980714Y-181750000D01*
X311123571Y-181678571D01*
X311337857Y-181678571D01*
X311480714Y-181750000D01*
X312195000Y-182678571D02*
X312195000Y-181178571D01*
X312337857Y-182107142D02*
X312766428Y-182678571D01*
X312766428Y-181678571D02*
X312195000Y-182250000D01*
D12*
X168500000Y-115100000D03*
X168500000Y-112900000D03*
D13*
X155000000Y-213500000D03*
D14*
X155000000Y-216040000D03*
X152460000Y-213500000D03*
X152460000Y-216040000D03*
X149920000Y-213500000D03*
X149920000Y-216040000D03*
X147380000Y-213500000D03*
X147380000Y-216040000D03*
X144840000Y-213500000D03*
X144840000Y-216040000D03*
D15*
X208000000Y-194000000D03*
X208000000Y-198000000D03*
X197000000Y-198000000D03*
X197000000Y-194000000D03*
D16*
X216250000Y-162100000D03*
X203750000Y-162100000D03*
X216250000Y-177900000D03*
X203750000Y-177900000D03*
D17*
X212500000Y-162700000D03*
X210000000Y-162700000D03*
X207500000Y-162700000D03*
X212500000Y-177000000D03*
X207500000Y-177000000D03*
D18*
X210000000Y-165500000D03*
D19*
X210000000Y-170000000D03*
D20*
X216375000Y-170000000D03*
X203625000Y-170000000D03*
D12*
X130500000Y-198600000D03*
X130500000Y-196400000D03*
D21*
X181500000Y-203050000D03*
X181500000Y-204950000D03*
D22*
X220500000Y-157460000D03*
X220500000Y-160000000D03*
D23*
X220500000Y-162540000D03*
D24*
X213850000Y-146375000D03*
X213850000Y-145725000D03*
X213850000Y-145075000D03*
X213850000Y-144425000D03*
X213850000Y-143775000D03*
X213850000Y-143125000D03*
X213850000Y-142475000D03*
X213850000Y-141825000D03*
X213850000Y-141175000D03*
X213850000Y-140525000D03*
X213850000Y-139875000D03*
X213850000Y-139225000D03*
X213850000Y-138575000D03*
X213850000Y-137925000D03*
X213850000Y-137275000D03*
X213850000Y-136625000D03*
X221150000Y-136625000D03*
X221150000Y-137275000D03*
X221150000Y-137925000D03*
X221150000Y-138575000D03*
X221150000Y-139225000D03*
X221150000Y-139875000D03*
X221150000Y-140525000D03*
X221150000Y-141175000D03*
X221150000Y-141825000D03*
X221150000Y-142475000D03*
X221150000Y-143125000D03*
X221150000Y-143775000D03*
X221150000Y-144425000D03*
X221150000Y-145075000D03*
X221150000Y-145725000D03*
X221150000Y-146375000D03*
D16*
X156250000Y-162100000D03*
X143750000Y-162100000D03*
X156250000Y-177900000D03*
X143750000Y-177900000D03*
D17*
X152500000Y-162700000D03*
X150000000Y-162700000D03*
X147500000Y-162700000D03*
X152500000Y-177000000D03*
X147500000Y-177000000D03*
D18*
X150000000Y-165500000D03*
D19*
X150000000Y-170000000D03*
D20*
X156375000Y-170000000D03*
X143625000Y-170000000D03*
D12*
X147500000Y-137100000D03*
X147500000Y-134900000D03*
D25*
X202905000Y-115850000D03*
X200365000Y-115850000D03*
X205445000Y-115850000D03*
X197825000Y-115850000D03*
X196555000Y-118390000D03*
X199095000Y-118390000D03*
X201635000Y-118390000D03*
X204175000Y-118390000D03*
X204785000Y-106120000D03*
X194675000Y-106120000D03*
X197215000Y-104600000D03*
X207325000Y-104600000D03*
D19*
X208875000Y-112550000D03*
X193125000Y-112550000D03*
D26*
X206715000Y-109500000D03*
X195285000Y-109500000D03*
D27*
X203400000Y-200000000D03*
X205600000Y-200000000D03*
X109100000Y-195500000D03*
X106900000Y-195500000D03*
X131600000Y-111000000D03*
X129400000Y-111000000D03*
D12*
X126500000Y-116900000D03*
X126500000Y-119100000D03*
D28*
X174550000Y-208500000D03*
X176450000Y-208500000D03*
X180450000Y-208500000D03*
X178550000Y-208500000D03*
D21*
X181500000Y-200950000D03*
X181500000Y-199050000D03*
D28*
X175050000Y-197500000D03*
X176950000Y-197500000D03*
X175550000Y-206500000D03*
X177450000Y-206500000D03*
D21*
X184000000Y-199550000D03*
X184000000Y-201450000D03*
X173000000Y-200950000D03*
X173000000Y-199050000D03*
X173000000Y-204950000D03*
X173000000Y-203050000D03*
D28*
X175550000Y-199600000D03*
X177450000Y-199600000D03*
D21*
X229500000Y-170450000D03*
X229500000Y-168550000D03*
X125000000Y-189450000D03*
X125000000Y-187550000D03*
X137500000Y-189950000D03*
X137500000Y-188050000D03*
X132000000Y-178450000D03*
X132000000Y-176550000D03*
X116500000Y-176050000D03*
X116500000Y-177950000D03*
X132000000Y-167450000D03*
X132000000Y-165550000D03*
X105000000Y-167950000D03*
X105000000Y-166050000D03*
D29*
X150500000Y-115500000D03*
X154500000Y-115500000D03*
D15*
X134000000Y-118000000D03*
X134000000Y-114000000D03*
D21*
X149500000Y-118550000D03*
X149500000Y-120450000D03*
D28*
X131450000Y-113000000D03*
X129550000Y-113000000D03*
D19*
X155500000Y-152500000D03*
X160500000Y-152500000D03*
D29*
X161500000Y-115500000D03*
X157500000Y-115500000D03*
X200500000Y-194000000D03*
X204500000Y-194000000D03*
D21*
X104500000Y-199050000D03*
X104500000Y-200950000D03*
D28*
X104450000Y-193500000D03*
X102550000Y-193500000D03*
D21*
X112500000Y-198050000D03*
X112500000Y-199950000D03*
X182000000Y-171050000D03*
X182000000Y-172950000D03*
X166500000Y-176450000D03*
X166500000Y-174550000D03*
D28*
X176550000Y-175000000D03*
X178450000Y-175000000D03*
X185450000Y-175500000D03*
X183550000Y-175500000D03*
D21*
X189000000Y-173450000D03*
X189000000Y-171550000D03*
X189000000Y-166950000D03*
X189000000Y-165050000D03*
X189000000Y-161950000D03*
X189000000Y-160050000D03*
D28*
X185050000Y-156500000D03*
X186950000Y-156500000D03*
X185050000Y-155000000D03*
X186950000Y-155000000D03*
X182950000Y-154000000D03*
X181050000Y-154000000D03*
X177450000Y-154000000D03*
X175550000Y-154000000D03*
D21*
X171000000Y-157950000D03*
X171000000Y-156050000D03*
D28*
X170950000Y-153500000D03*
X169050000Y-153500000D03*
D21*
X168000000Y-160550000D03*
X168000000Y-162450000D03*
X169000000Y-165050000D03*
X169000000Y-166950000D03*
X185000000Y-171050000D03*
X185000000Y-172950000D03*
X186500000Y-171050000D03*
X186500000Y-172950000D03*
D28*
X199050000Y-151000000D03*
X200950000Y-151000000D03*
X178450000Y-163500000D03*
X176550000Y-163500000D03*
X178450000Y-156000000D03*
X176550000Y-156000000D03*
D30*
X182500000Y-182300000D03*
X182500000Y-183700000D03*
X117000000Y-182300000D03*
X117000000Y-183700000D03*
X166000000Y-199300000D03*
X166000000Y-200700000D03*
X213500000Y-129300000D03*
X213500000Y-130700000D03*
X173500000Y-129300000D03*
X173500000Y-130700000D03*
X126000000Y-129300000D03*
X126000000Y-130700000D03*
D12*
X236500000Y-112100000D03*
X236500000Y-109900000D03*
D31*
X224000000Y-105501780D03*
X223050000Y-107500760D03*
X224950000Y-107500760D03*
D12*
X234000000Y-112100000D03*
X234000000Y-109900000D03*
D32*
X157150000Y-110500000D03*
X152850000Y-110500000D03*
D33*
X200500000Y-198550000D03*
X200500000Y-196450000D03*
D34*
X235000000Y-105000000D03*
X105000000Y-215000000D03*
X105000000Y-105000000D03*
X235000000Y-215000000D03*
D22*
X192000000Y-187960000D03*
X192000000Y-190500000D03*
D23*
X192000000Y-193040000D03*
D35*
X234000000Y-114000000D03*
D36*
X236540000Y-114000000D03*
D37*
X123000000Y-153270000D03*
X123000000Y-150730000D03*
X142000000Y-153270000D03*
X142000000Y-150730000D03*
X103500000Y-152770000D03*
X103500000Y-150230000D03*
D19*
X117500000Y-102600000D03*
X117500000Y-107000000D03*
D12*
X192500000Y-205900000D03*
X192500000Y-208100000D03*
D27*
X199400000Y-204500000D03*
X201600000Y-204500000D03*
D12*
X153500000Y-183600000D03*
X153500000Y-181400000D03*
X188400000Y-190900000D03*
X188400000Y-193100000D03*
X162000000Y-176400000D03*
X162000000Y-178600000D03*
X184500000Y-165400000D03*
X184500000Y-167600000D03*
X185000000Y-158400000D03*
X185000000Y-160600000D03*
X186500000Y-201400000D03*
X186500000Y-203600000D03*
D27*
X165900000Y-217000000D03*
X168100000Y-217000000D03*
X178100000Y-216000000D03*
X175900000Y-216000000D03*
X227400000Y-179000000D03*
X229600000Y-179000000D03*
X229600000Y-177000000D03*
X227400000Y-177000000D03*
D12*
X230500000Y-152600000D03*
X230500000Y-150400000D03*
X108000000Y-159100000D03*
X108000000Y-156900000D03*
X167500000Y-147600000D03*
X167500000Y-145400000D03*
D27*
X149900000Y-122500000D03*
X152100000Y-122500000D03*
D12*
X155500000Y-120600000D03*
X155500000Y-118400000D03*
X157500000Y-118400000D03*
X157500000Y-120600000D03*
D27*
X129400000Y-109000000D03*
X131600000Y-109000000D03*
D12*
X110500000Y-197900000D03*
X110500000Y-200100000D03*
D27*
X102400000Y-195500000D03*
X104600000Y-195500000D03*
X106900000Y-193500000D03*
X109100000Y-193500000D03*
D12*
X186500000Y-163400000D03*
X186500000Y-165600000D03*
X171500000Y-163900000D03*
X171500000Y-166100000D03*
X173500000Y-166100000D03*
X173500000Y-163900000D03*
D27*
X208100000Y-149500000D03*
X205900000Y-149500000D03*
X175400000Y-149000000D03*
X177600000Y-149000000D03*
D12*
X165500000Y-110100000D03*
X165500000Y-107900000D03*
D38*
X193000000Y-152250000D03*
X193000000Y-152750000D03*
X193000000Y-153750000D03*
X193000000Y-153250000D03*
X192000000Y-152250000D03*
X192000000Y-153250000D03*
X192000000Y-152750000D03*
X192000000Y-153750000D03*
D39*
X205600000Y-212000000D03*
X194400000Y-212000000D03*
D40*
X152500000Y-120600000D03*
X151550000Y-120600000D03*
X153450000Y-120600000D03*
X153450000Y-118400000D03*
X152500000Y-118400000D03*
X151550000Y-118400000D03*
D41*
X132100000Y-115050000D03*
X132100000Y-116000000D03*
X132100000Y-116950000D03*
X129900000Y-116950000D03*
X129900000Y-115050000D03*
X129900000Y-116000000D03*
D42*
X106525000Y-202200000D03*
X107175000Y-202200000D03*
X107825000Y-202200000D03*
X108475000Y-202200000D03*
X108475000Y-197800000D03*
X107825000Y-197800000D03*
X107175000Y-197800000D03*
X106525000Y-197800000D03*
D41*
X203400000Y-196550000D03*
X203400000Y-198450000D03*
X205600000Y-198450000D03*
X205600000Y-197500000D03*
X205600000Y-196550000D03*
D43*
X202850000Y-113000000D03*
X202850000Y-113950000D03*
X202850000Y-112050000D03*
X200150000Y-112050000D03*
X200150000Y-113000000D03*
X200150000Y-113950000D03*
D44*
X136365000Y-151000000D03*
X139635000Y-151000000D03*
D45*
X103500000Y-145365000D03*
X103500000Y-148635000D03*
X123000000Y-145865000D03*
X123000000Y-149135000D03*
D44*
X139365000Y-155000000D03*
X142635000Y-155000000D03*
D45*
X103500000Y-157635000D03*
X103500000Y-154365000D03*
D44*
X119865000Y-155250000D03*
X123135000Y-155250000D03*
D28*
X146950000Y-132500000D03*
X145050000Y-132500000D03*
D46*
X114040000Y-188500000D03*
X111500000Y-188500000D03*
D47*
X108960000Y-188500000D03*
D48*
X113000000Y-126200020D03*
X113000000Y-120799980D03*
D49*
X174930000Y-109000000D03*
X188070000Y-109000000D03*
D50*
X176800000Y-165095000D03*
X176800000Y-166365000D03*
X176800000Y-167635000D03*
X176800000Y-168905000D03*
X182200000Y-168905000D03*
X182200000Y-167635000D03*
X182200000Y-166365000D03*
X182200000Y-165095000D03*
X176800000Y-157595000D03*
X176800000Y-158865000D03*
X176800000Y-160135000D03*
X176800000Y-161405000D03*
X182200000Y-161405000D03*
X182200000Y-160135000D03*
X182200000Y-158865000D03*
X182200000Y-157595000D03*
D51*
X163905000Y-180000000D03*
X160095000Y-180000000D03*
D12*
X199000000Y-120400000D03*
X199000000Y-122600000D03*
D27*
X198100000Y-112000000D03*
X195900000Y-112000000D03*
D12*
X204000000Y-120400000D03*
X204000000Y-122600000D03*
D52*
X203155000Y-148655000D03*
X203155000Y-147345000D03*
X201845000Y-148655000D03*
X201845000Y-147345000D03*
D53*
X219950000Y-105950000D03*
X228050000Y-105950000D03*
X228050000Y-114050000D03*
X219950000Y-114050000D03*
D18*
X224000000Y-110000000D03*
D54*
X228350000Y-132150000D03*
X225650000Y-132150000D03*
X228350000Y-134850000D03*
X225650000Y-134850000D03*
X133625000Y-154125000D03*
X133625000Y-151875000D03*
X131375000Y-154125000D03*
X131375000Y-151875000D03*
X114125000Y-154125000D03*
X114125000Y-151875000D03*
X111875000Y-154125000D03*
X111875000Y-151875000D03*
D21*
X234500000Y-147450000D03*
X234500000Y-145550000D03*
D36*
X237500000Y-147500000D03*
D35*
X237500000Y-144960000D03*
D36*
X122500000Y-209460000D03*
D35*
X122500000Y-212000000D03*
D27*
X130600000Y-194000000D03*
X128400000Y-194000000D03*
D12*
X232500000Y-152100000D03*
X232500000Y-149900000D03*
X234500000Y-151600000D03*
X234500000Y-149400000D03*
D55*
X177500000Y-179750000D03*
X177500000Y-178250000D03*
X180500000Y-179750000D03*
X180500000Y-178250000D03*
X119500000Y-179750000D03*
X119500000Y-178250000D03*
X122500000Y-179750000D03*
X122500000Y-178250000D03*
X161000000Y-204750000D03*
X161000000Y-203250000D03*
X164000000Y-204750000D03*
X164000000Y-203250000D03*
X211500000Y-125250000D03*
X211500000Y-126750000D03*
X208500000Y-125250000D03*
X208500000Y-126750000D03*
X168500000Y-126750000D03*
X168500000Y-125250000D03*
X171500000Y-126750000D03*
X171500000Y-125250000D03*
X131500000Y-125250000D03*
X131500000Y-126750000D03*
X128500000Y-125250000D03*
X128500000Y-126750000D03*
D56*
X119200020Y-205000000D03*
X113799980Y-205000000D03*
D55*
X136000000Y-204750000D03*
X136000000Y-203250000D03*
X139000000Y-204750000D03*
X139000000Y-203250000D03*
D30*
X133500000Y-199300000D03*
X133500000Y-200700000D03*
D55*
X167000000Y-170750000D03*
X167000000Y-169250000D03*
X170000000Y-170750000D03*
X170000000Y-169250000D03*
D57*
X152200000Y-160000000D03*
X150800000Y-160000000D03*
X147800000Y-160000000D03*
X149200000Y-160000000D03*
D58*
X149250000Y-150000000D03*
X150750000Y-150000000D03*
X149250000Y-153000000D03*
X150750000Y-153000000D03*
X149250000Y-187000000D03*
X150750000Y-187000000D03*
X149250000Y-190000000D03*
X150750000Y-190000000D03*
D30*
X147500000Y-180200000D03*
X147500000Y-178800000D03*
D55*
X130000000Y-171250000D03*
X130000000Y-169750000D03*
X133000000Y-171250000D03*
X133000000Y-169750000D03*
D58*
X221750000Y-171500000D03*
X220250000Y-171500000D03*
X221750000Y-168500000D03*
X220250000Y-168500000D03*
D57*
X216700000Y-159500000D03*
X215300000Y-159500000D03*
X206200000Y-159000000D03*
X204800000Y-159000000D03*
D55*
X211500000Y-158250000D03*
X211500000Y-159750000D03*
X208500000Y-158250000D03*
X208500000Y-159750000D03*
X208500000Y-181750000D03*
X208500000Y-180250000D03*
X211500000Y-181750000D03*
X211500000Y-180250000D03*
D57*
X202800000Y-181000000D03*
X204200000Y-181000000D03*
D58*
X198250000Y-168500000D03*
X199750000Y-168500000D03*
X198250000Y-171500000D03*
X199750000Y-171500000D03*
D59*
X137411000Y-116089000D03*
D10*
G36*
X135696266Y-115682414D02*
X137004414Y-114374266D01*
X139125734Y-116495586D01*
X137817586Y-117803734D01*
X135696266Y-115682414D01*
X135696266Y-115682414D01*
G37*
D59*
X144589000Y-108911000D03*
D10*
G36*
X142874266Y-108504414D02*
X144182414Y-107196266D01*
X146303734Y-109317586D01*
X144995586Y-110625734D01*
X142874266Y-108504414D01*
X142874266Y-108504414D01*
G37*
D60*
X106000000Y-205100000D03*
X110000000Y-205100000D03*
D27*
X173400000Y-186000000D03*
X175600000Y-186000000D03*
X175600000Y-178000000D03*
X173400000Y-178000000D03*
X173400000Y-180000000D03*
X175600000Y-180000000D03*
D12*
X126500000Y-183400000D03*
X126500000Y-185600000D03*
D27*
X124800000Y-180000000D03*
X127000000Y-180000000D03*
X124900000Y-178000000D03*
X127100000Y-178000000D03*
X159100000Y-207000000D03*
X156900000Y-207000000D03*
X156900000Y-203000000D03*
X159100000Y-203000000D03*
X159100000Y-205000000D03*
X156900000Y-205000000D03*
X208400000Y-133000000D03*
X210600000Y-133000000D03*
D12*
X204000000Y-129600000D03*
X204000000Y-127400000D03*
X206000000Y-127400000D03*
X206000000Y-129600000D03*
D27*
X138400000Y-125000000D03*
X140600000Y-125000000D03*
X142100000Y-127000000D03*
X139900000Y-127000000D03*
X143100000Y-129000000D03*
X140900000Y-129000000D03*
D12*
X134000000Y-128900000D03*
X134000000Y-131100000D03*
D27*
X136100000Y-127000000D03*
X133900000Y-127000000D03*
X133900000Y-125000000D03*
X136100000Y-125000000D03*
X138600000Y-207000000D03*
X136400000Y-207000000D03*
X140900000Y-205000000D03*
X143100000Y-205000000D03*
X143100000Y-203000000D03*
X140900000Y-203000000D03*
X153400000Y-155000000D03*
X155600000Y-155000000D03*
X155600000Y-157000000D03*
X153400000Y-157000000D03*
X153900000Y-159000000D03*
X156100000Y-159000000D03*
D12*
X153000000Y-145400000D03*
X153000000Y-147600000D03*
X151000000Y-147600000D03*
X151000000Y-145400000D03*
X149000000Y-147600000D03*
X149000000Y-145400000D03*
X147000000Y-191900000D03*
X147000000Y-194100000D03*
X149000000Y-194100000D03*
X149000000Y-191900000D03*
X151000000Y-191900000D03*
X151000000Y-194100000D03*
X130000000Y-157100000D03*
X130000000Y-154900000D03*
X127500000Y-154900000D03*
X127500000Y-157100000D03*
X125500000Y-157100000D03*
X125500000Y-154900000D03*
X224000000Y-168400000D03*
X224000000Y-170600000D03*
X220000000Y-153600000D03*
X220000000Y-151400000D03*
X218000000Y-151500000D03*
X218000000Y-153700000D03*
X213500000Y-158100000D03*
X213500000Y-155900000D03*
X209000000Y-153900000D03*
X209000000Y-156100000D03*
X211000000Y-156100000D03*
X211000000Y-153900000D03*
D27*
X211600000Y-184000000D03*
X209400000Y-184000000D03*
X216600000Y-183000000D03*
X214400000Y-183000000D03*
X216600000Y-181000000D03*
X214400000Y-181000000D03*
D12*
X201000000Y-166100000D03*
X201000000Y-163900000D03*
X199000000Y-163900000D03*
X199000000Y-166100000D03*
X197000000Y-166100000D03*
X197000000Y-163900000D03*
D61*
X181050000Y-182200000D03*
X181050000Y-183800000D03*
X176950000Y-182200000D03*
X176950000Y-183800000D03*
X118950000Y-183800000D03*
X118950000Y-182200000D03*
X123050000Y-183800000D03*
X123050000Y-182200000D03*
X160450000Y-200800000D03*
X160450000Y-199200000D03*
X164550000Y-200800000D03*
X164550000Y-199200000D03*
X212050000Y-129200000D03*
X212050000Y-130800000D03*
X207950000Y-129200000D03*
X207950000Y-130800000D03*
X167950000Y-130800000D03*
X167950000Y-129200000D03*
X172050000Y-130800000D03*
X172050000Y-129200000D03*
X127950000Y-130800000D03*
X127950000Y-129200000D03*
X132050000Y-130800000D03*
X132050000Y-129200000D03*
X139550000Y-199200000D03*
X139550000Y-200800000D03*
X135450000Y-199200000D03*
X135450000Y-200800000D03*
D40*
X178950000Y-122100000D03*
X178000000Y-122100000D03*
X177050000Y-122100000D03*
X177050000Y-119900000D03*
X178950000Y-119900000D03*
D24*
X153650000Y-209700000D03*
X153650000Y-209050000D03*
X153650000Y-208400000D03*
X153650000Y-207750000D03*
X153650000Y-207100000D03*
X153650000Y-206450000D03*
X153650000Y-205800000D03*
X153650000Y-205150000D03*
X153650000Y-204500000D03*
X153650000Y-203850000D03*
X153650000Y-203200000D03*
X153650000Y-202550000D03*
X153650000Y-201900000D03*
X153650000Y-201250000D03*
X153650000Y-200600000D03*
X153650000Y-199950000D03*
X146350000Y-199950000D03*
X146350000Y-200600000D03*
X146350000Y-201250000D03*
X146350000Y-201900000D03*
X146350000Y-202550000D03*
X146350000Y-203200000D03*
X146350000Y-203850000D03*
X146350000Y-204500000D03*
X146350000Y-205150000D03*
X146350000Y-205800000D03*
X146350000Y-206450000D03*
X146350000Y-207100000D03*
X146350000Y-207750000D03*
X146350000Y-208400000D03*
X146350000Y-209050000D03*
X146350000Y-209700000D03*
D62*
X130125000Y-133850000D03*
X130775000Y-133850000D03*
X131425000Y-133850000D03*
X132075000Y-133850000D03*
X132725000Y-133850000D03*
X133375000Y-133850000D03*
X134025000Y-133850000D03*
X134675000Y-133850000D03*
X135325000Y-133850000D03*
X135975000Y-133850000D03*
X136625000Y-133850000D03*
X137275000Y-133850000D03*
X137925000Y-133850000D03*
X138575000Y-133850000D03*
X139225000Y-133850000D03*
X139875000Y-133850000D03*
X139875000Y-141150000D03*
X139225000Y-141150000D03*
X138575000Y-141150000D03*
X137925000Y-141150000D03*
X137275000Y-141150000D03*
X136625000Y-141150000D03*
X135975000Y-141150000D03*
X135325000Y-141150000D03*
X134675000Y-141150000D03*
X134025000Y-141150000D03*
X133375000Y-141150000D03*
X132725000Y-141150000D03*
X132075000Y-141150000D03*
X131425000Y-141150000D03*
X130775000Y-141150000D03*
X130125000Y-141150000D03*
D34*
X190000000Y-145000000D03*
D63*
X128500000Y-122500000D03*
X140500000Y-217500000D03*
X126500000Y-128000000D03*
X140000000Y-163500000D03*
X196500000Y-202500000D03*
X188000000Y-138000000D03*
X195500000Y-155500000D03*
X170500000Y-149500000D03*
X194000000Y-200000000D03*
X165000000Y-153500000D03*
D46*
X215460000Y-214000000D03*
X218000000Y-214000000D03*
D47*
X220540000Y-214000000D03*
D12*
X233500000Y-133100000D03*
X233500000Y-130900000D03*
X174500000Y-158400000D03*
X174500000Y-160600000D03*
D27*
X187400000Y-169000000D03*
X189600000Y-169000000D03*
D28*
X165550000Y-193500000D03*
X167450000Y-193500000D03*
D27*
X163400000Y-195500000D03*
X165600000Y-195500000D03*
M02*
